<svg version="1" xmlns="http://www.w3.org/2000/svg" width="533.333" height="533.333" viewBox="0 0 400.000000 400.000000"><path d="M192.5 4.9c-.3 1-.3 2.4-.1 3.2.8 2.2-2 5.3-4.1 4.4-1-.4-3.7-.8-6-.9-3.7-.2-4.4.1-5.2 2.3-.7 1.8-1 2.1-1 .8-.1-1.5-.5-1.6-2.1-.7-1.4.7-2 .7-2 0 0-1.5-2.6-1.2-4 .5-.7.8-2.5 1.5-4.1 1.5-1.6 0-2.8.5-2.6 1.1.1.6-.3 1.3-.8 1.5-.6.3-1.1-.6-1.2-1.8 0-3.2-.6-5.2-1.8-6-1.7-1.3-2.3-.9-3 2.2-.4 1.7-1.3 3-2.1 3s-1.7.7-2 1.5c-.4.8-1.4 1.5-2.5 1.5-1 0-2.2.7-2.7 1.5-.6 1.2-2.5 1.6-6.8 1.6-3.2 0-6.7-.1-7.8-.3-1.4-.2-2.2.7-3.2 3.4-.9 2.8-1 3.8-.1 4.1 2.8.9-.5 17.7-3.5 17.7-.5 0-.7.4-.3.9.3.5.1 1.2-.5 1.6-.5.3-1 .1-1-.4 0-1.7-3-1.3-3.6.4-.4.8-2.4 1.8-4.5 2.1-4.4.7-7.5 3.3-4.3 3.6 1.1 0 2.4.1 3 .1.6 0 1.1.6 1.1 1.3 0 .8-.4 1.4-.7 1.4-.4 0-2.6 1.7-4.8 3.7-3.8 3.6-4.5 6.3-1.7 6.3 1.6 0 1 6.1-.9 7.5-.7.5-1.3 1.3-1.4 1.8-.1.4-1 2.7-2 5-1.7 3.7-2.4 7-3.9 16.2-.4 2.8-.4 23.1.2 46.9.4 17.9.2 20.1-1.3 21.3-.9.8-1.1 1.2-.5.8.8-.4 1.1-.1.7.9-.3.8-1.4 1.8-2.5 2.1-3.4 1.1-5.2 6.1-4.5 12.9 1 10.2 1.7 14.2 3.3 17.1.5 1.1 1.4 3.3 1.8 5 1.2 4.3 1.2 4.4 1.5 5.2.2.5.4 1.2.5 1.8.5 3.4 3.7 12.5 4.5 13 .6.4.8 1.1.5 1.6-.4.5-.1.9.4.9.6 0 1.1.7 1.1 1.5s.9 1.9 1.9 2.5c1.1.5 2.2 1.9 2.6 2.9.6 2 8.2 6.4 9.6 5.6.8-.6 2.1 2.1 2.4 5 .1 1.1.5 5.1.9 9 .4 3.8 1.2 7.1 1.7 7.3 1.2.5 1.1 4.3 0 6.1-.9 1.4-1.9 1.8-6.6 2.6-1.1.2-2 .4-2 .5 0 .1-.8.3-1.9.5-1 .2-4 .9-6.7 1.5-2.6.7-5.3.9-5.9.5-.5-.3-1-.2-1 .2 0 .5-1.2.9-2.7 1-1.6.1-5.7.5-9.3.9-3.6.4-7.5.7-8.7.7-1.3 0-2.3.3-2.3.7 0 .4-2.1 1.1-4.6 1.5-8.9 1.3-18.7 4.2-24.6 7.2-1.6.8-2.8 1.1-2.8.8 0-.4-.7 0-1.5.8s-3.1 2.5-5.2 3.8c-4.6 2.7-10.4 8.4-9.6 9.3.4.3.2.6-.4.6-.9 0-2.1 2.6-2.1 4.6 0 .3-.7 1.5-1.4 2.7-2.4 3.7-4.7 14.8-4.9 23.9 0 1-.5 1.8-1 1.8-.6 0-.8.4-.5.9.3.5-.4 2-1.5 3.5-1.1 1.4-1.8 2.6-1.4 2.6.3 0-.2 1.5-1.2 3.3-1 1.7-1.8 5-1.8 7.2 0 3.7-.2 4-5.7 7l-5.8 3V400h400v-33.5l-4.3-2.4c-2.3-1.3-5.9-3.2-8.1-4.3l-3.9-2 .8-6.1c1.8-14.5-.9-28.9-7.4-38.7-3.8-5.7-5.6-8-6.5-8-.2 0-1.7-.5-3.3-1.1-1.5-.6-5-1.2-7.8-1.3-5.9-.3-10.5-1.5-10.5-2.7 0-.5-1.5-.9-3.2-.8-3.4.1-16.2-3.2-19.6-5-1.1-.6-2.2-.8-2.5-.4-.4.3-1.3.1-2-.6-.8-.6-2.2-.9-3-.5-.9.3-2.9-.1-4.4-.9-7.3-3.8-11.8-5.1-16.1-4.8-1.8.1-4.9-.5-6.8-1.4-2-.9-5.4-1.8-7.8-1.9-7.2-.4-20.3-6.4-17.6-8.1.6-.4.8-1.1.4-1.6-.3-.6.1-1.8.9-2.7.9-.9 1.8-3.9 2.2-6.6.3-2.7.8-5.2 1-5.6.3-.5.7-3.2 1-6 .8-7.3 4-12.6 7.1-11.6 1.1.4 2.7-1 9.7-8.5 2.4-2.5 3.9-5.7 4.2-8.9.1-2 2.8-8 3.5-8 .3 0 .7-1.7.8-3.7.2-2.1.9-4.4 1.6-5.3 1.5-1.7 3-5.1 2.8-6.3-.1-.4.2-.7.6-.7 1.1 0 1.2-.5 1.8-11.6.5-8 .3-9.6-1.5-13.3-1.6-3.1-2.9-4.3-5.1-4.8-3-.5-3-.7-3-7 0-3.5.5-7.3 1-8.3.6-1.2.7-2.1 0-2.5-.5-.3-.6-1.5-.1-2.8.4-1.2.7-4.7.5-7.7-.2-3-.6-16.4-.9-29.8-.3-13.8-1-25.2-1.6-26.3-.5-1.1-.7-2.4-.4-2.9.3-.6.1-1-.4-1-.6 0-1.1-.5-1.1-1 0-.6-.9-2.3-2-3.9-1.2-1.5-2.2-3.7-2.3-4.9-.1-1.2-.5-2.2-.9-2.2s-.5-.7-.2-1.5c.4-.8.1-1.5-.5-1.5s-1.1-.7-1.1-1.5c0-.9-1.2-2-2.6-2.5-2.3-.9-2.5-1.4-1.9-4.8.6-3.6.4-3.9-4-7.2-4.3-3.2-4.5-3.6-2.8-4.8 1.7-1.3 1.7-1.4-.6-3.3s-2.3-1.9-.2-1.9c2.5 0 2.8-2.5.4-3.5-2.3-1-8.3-1.3-8.3-.5 0 .4-.6.7-1.3.7-1 0-1.2-1.4-.9-5.4.4-4.8.2-5.4-1.9-6.2-1.8-.7-2.7-.5-3.6.6-.8 1-1.3 1.1-1.8.2-.4-.6-.4-1.4.1-1.8.5-.3 1-1.3 1.2-2.3.3-2.1-2.1-1.8-4.8.7-2 1.8-2 1.8-2-.3 0-1.2-.4-2.2-.9-2.2s-1.3-.9-1.6-2.1c-.5-1.6-1-1.8-2.1-.8-.8.6-1.4 1.8-1.4 2.6 0 1.1-.4 1.2-2.2.2-1.3-.7-2.5-1-2.7-.8-.2.2-.5-1.1-.6-2.8-.2-1.8.3-3.8 1.1-4.4 2-1.6.7-3.1-1.6-1.9-1.3.7-2.1.7-2.5 0-.4-.6-1.1-.8-1.6-.5-.5.4-1.2-.1-1.5-.9-.4-1.1-1.4-1.4-3.3-1-1.4.3-4.3.7-6.4.9-2.1.2-4.5.9-5.3 1.6-1.2 1-1.6.9-2.1-.9-.3-1.2-.9-2.2-1.5-2.2-.5 0-.4-.8.2-1.9.5-1.1.7-2.2.3-2.4-1-.6-7.3 6-6.5 6.7.3.3-.3.6-1.2.6-1.3 0-1.6-.5-1.2-1.6.5-1.3.2-1.5-1.4-1.1-1.3.3-2.3 0-2.7-.9-.3-.8-.9-1.2-1.3-.9-.4.2-1.5-.4-2.5-1.5-2.3-2.5-3.2-2.5-4-.1zm60.6 69.2c.9 1.8.6 2.9-2.3 7-1.8 2.7-3.6 4.9-4 4.9-.5 0-.8.7-.8 1.5s-.4 1.5-1 1.5c-.5 0-1 .7-1 1.5s-.4 1.5-.8 1.5c-1.8 0-2.9 4.3-1.8 6.7.6 1.2 1.4 2.3 1.9 2.3.4 0 .7.6.7 1.4 0 .8.3 1.6.8 1.8.6.3 4.3 7.5 6.3 12.3 1.2 3.1 3.7 11.8 3.9 13.7.8 7.4 0 42.3-1 42.3-.1 0-.3 1.1-.6 2.5-.2 1.4-.7 3.2-1.1 4-.3.8-.7 2-.8 2.6-.6 2.5-5 11.4-5.7 11.4-.5 0-.8.7-.8 1.5 0 1.7-15.3 17.5-17 17.5-.6 0-1.8.7-2.7 1.5-.8.8-1.9 1.3-2.4 1-.5-.4-.9-.1-.9.5s-.4.8-1 .5c-.5-.3-1-.1-1 .5s-.4.9-.9.5c-.5-.3-1.2-.1-1.5.4-.6.8-4.7 1.9-11.1 2.9-3.8.6-19.2.6-22.5 0-2.2-.4-6.8-1.5-9.5-2.3-.5-.1-1.4-.3-2-.4-.5-.2-2.5-1.2-4.3-2.3-3.6-2.2-8.2-1.8-8.2.7 0 .8-.4 1.5-.9 1.5s-1.6 1.5-2.5 3.2c-3.6 7.3-4.6 8-12.5 8-4 0-7.5-.2-7.8-.6-1.1-1-.5-5.5.8-6.9.8-.8 2.5-3.3 3.9-5.7 1.4-2.3 3.3-5.1 4.3-6.1.9-1.1 1.7-2.3 1.7-2.8s.4-1.1.9-1.3c1.7-.7 2.2-4.6.6-6.1-.8-.9-1.5-2-1.5-2.5 0-.6-.4-1.2-.9-1.4-1.3-.5-7.7-14.9-8.6-19.3-.5-2.2-1-4.7-1.2-5.5-2.5-9.1-2.4-31.5 0-42.5 2-8.6 4.5-16.5 5.7-17.5.3-.3 1.6-2.6 2.9-5.2 1.3-2.6 3-4.9 3.7-5.2.8-.3 1.4-1.2 1.4-2 0-1.9 11.4-11.6 13.8-11.6.6 0 1.2-.4 1.2-.9 0-.8 2.8-2.2 5-2.6.3 0 1.4-.6 2.5-1.2 1.9-1 5.2-1.9 12-2.9 1.7-.3 6.6-.5 11-.5 11.3.1 16.4.9 20.4 3.1 1.2.6 2.1.8 2.1.6 0-.3 2.1.6 4.7 1.9 4.6 2.5 4.6 2.5 6.5.6 1-1.1 1.8-2.5 1.8-3.1 0-.5.5-1 1-1 .6 0 1-.7 1-1.5s.5-1.5 1-1.5c.6 0 1-.5 1-1.1 0-2.5 3.6-3.8 10.2-3.9 5.8 0 6.9.3 7.9 2.1z"/><path d="M192 97.4c-.3.2-1.9.7-3.5 1-6.4 1.2-9.5 2.6-14.9 6.5-3.1 2.3-5.6 4.6-5.6 5.1s-.6 1.5-1.2 2.2c-2 2.1-5.7 9.3-6.2 11.9-.3 1.3-.8 3.5-1.1 4.9-1.2 4.7-1.6 9.5-1.6 20.5 0 10.6.3 14.1 1.6 19.5.3 1.4.8 3.6 1.1 5 .7 3.2 3.3 7.2 4.3 6.6.4-.3 1.8-2.5 3.1-5s2.7-4.6 3.2-4.6c.4 0 .8-.5.8-1 0-.6.5-1.6 1-2.3 2.1-2.5 5.9-8.3 7.6-11.5.9-1.7 2-3.2 2.4-3.2.4 0 1.8-2 3.1-4.5s2.7-4.5 3.1-4.5c.5 0 .8-.7.8-1.5s.5-1.5 1-1.5c.6 0 1-.6 1-1.3 0-.7.9-2.3 2-3.5 1.1-1.2 2-2.4 2-2.7 0-.3.8-1.5 1.8-2.6 1.1-1 2.5-3.2 3.3-4.7.8-1.5 2.2-3.6 3.2-4.6.9-1.1 1.7-2.5 1.7-3.1 0-.6 1.2-2.6 2.8-4.5 1.5-1.9 3.4-4.7 4.1-6.3.8-1.5 1.8-2.7 2.3-2.7 1.7 0 .7-1.6-2.2-3.3-1.6-1-3-1.5-3-1.2 0 .3-.8.1-1.8-.4-3.2-1.7-15.3-3.7-16.2-2.7zM224.7 118.8c-.9 1-1.7 2.3-1.7 2.9 0 .6-.4 1.3-.8 1.5-.4.1-2.2 2.7-4 5.6-1.8 3-3.7 5.9-4.3 6.5-1.6 2-5.7 8-8 11.9-1.3 2.1-2.6 3.8-3.1 3.8-.4 0-.8.6-.8 1.2 0 .7-1.4 2.9-3 4.8s-3 3.9-3 4.3c0 .8-7.8 12.7-8.9 13.7-.3.3-1.2 1.7-2 3.2-.8 1.5-2.2 3.7-3.3 4.7-1 1.1-1.8 2.3-1.8 2.6 0 .3-1.2 2.4-2.7 4.7-2 2.9-2.4 4.3-1.5 4.6.7.2 1.8.9 2.5 1.6 1.1 1.1 3.4 2 8.7 3.3 1.7.4 12.6.4 15.5 0 1.1-.2 2.6-.6 3.3-1.1.6-.4 1.2-.4 1.2 0 0 .3 1.1-.1 2.5-1s2.5-1.3 2.5-.9c0 .5.4.3.8-.2.4-.6 2.1-2.1 3.9-3.3 3.2-2.3 12.1-14.6 12.8-17.9.2-1 .8-3.2 1.4-5 .5-1.7.7-3.4.4-3.7-.3-.3-.1-1.1.4-1.8 1.2-1.5 1.5-29.8.3-31.3-.4-.6-.8-1.7-.8-2.5s-.3-2.6-.7-4c-.3-1.4-.7-3-.9-3.5-.1-.6-.9-2.3-1.7-3.8-1.5-2.7-1.6-2.7-3.2-.9z"/></svg>